<svg width="40" height="40" fill="none" xmlns="http://www.w3.org/2000/svg"><path d="M9.135 3.32a1.695 1.695 0 00-2.537-.158L4.013 5.75C2.805 6.96 2.36 8.672 2.888 10.175a43.92 43.92 0 0010.42 16.52 43.923 43.923 0 0016.52 10.42c1.502.527 3.215.082 4.425-1.125l2.585-2.585a1.696 1.696 0 00-.158-2.538l-5.767-4.485a1.695 1.695 0 00-1.45-.305l-5.475 1.368a4.363 4.363 0 01-4.143-1.148l-6.14-6.142a4.362 4.362 0 01-1.15-4.143l1.37-5.475a1.694 1.694 0 00-.305-1.45L9.135 3.32zM4.71 1.277a4.363 4.363 0 016.53.408l4.485 5.765a4.361 4.361 0 01.788 3.735l-1.368 5.475a1.694 1.694 0 00.445 1.607l6.143 6.143a1.695 1.695 0 001.61.445l5.472-1.368a4.363 4.363 0 013.735.788l5.765 4.485a4.361 4.361 0 01.408 6.527l-2.585 2.585c-1.85 1.85-4.615 2.663-7.193 1.755a46.586 46.586 0 01-17.525-11.05A46.586 46.586 0 01.37 11.055C-.535 8.48.278 5.712 2.128 3.862l2.585-2.585H4.71z" fill="#fff"/></svg>